<svg xmlns="http://www.w3.org/2000/svg" width="358" height="354.785" viewBox="0 0 358 354.785"><g transform="translate(-429 -1764)"><g transform="translate(429 1764)"><g transform="translate(-1405 -1485.215)"><path d="M1475,1618h-65v169c0,26.51,12.147,48,27.13,48H1475Z" fill="#bfe8f7"/></g><path d="M1689,1644h-40v-31H1405v174a53.059,53.059,0,0,0,53,53h138a53.074,53.074,0,0,0,52.767-48H1689a74,74,0,0,0,0-148Zm0,138h-50v5a43.049,43.049,0,0,1-43,43H1458a43.049,43.049,0,0,1-43-43V1623h224v31h50a64,64,0,0,1,0,128Z" transform="translate(-1405 -1485.215)"/><path d="M1689,1672h-50v92h50a46,46,0,0,0,0-92Zm0,82h-40v-72h40a36,36,0,0,1,0,72Z" transform="translate(-1405 -1485.215)"/><path d="M1465.785,1525.285a28.011,28.011,0,0,0,0-39.57l-.5-.5-7.07,7.07.5.5a18,18,0,0,1,0,25.43l-.5.5a28.011,28.011,0,0,0,0,39.57,18,18,0,0,1,0,25.43l7.07,7.07a28.011,28.011,0,0,0,0-39.57,18,18,0,0,1,0-25.43Z" transform="translate(-1405 -1485.215)" fill="#223a77"/><path d="M1526.785,1525.285a28.011,28.011,0,0,0,0-39.57l-.5-.5-7.07,7.07.5.5a18,18,0,0,1,0,25.43l-.5.5a28.011,28.011,0,0,0,0,39.57,18,18,0,0,1,0,25.43l7.07,7.07a28.011,28.011,0,0,0,0-39.57,18,18,0,0,1,0-25.43Z" transform="translate(-1405 -1485.215)" fill="#223a77"/><path d="M1580.215,1518.715a28.011,28.011,0,0,0,0,39.57,18,18,0,0,1,0,25.43l7.07,7.07a28.011,28.011,0,0,0,0-39.57,18,18,0,0,1,0-25.43l.5-.5a28.011,28.011,0,0,0,0-39.57l-.5-.5-7.07,7.07.5.5a18,18,0,0,1,0,25.43Z" transform="translate(-1405 -1485.215)" fill="#223a77"/><rect width="10" height="85" transform="translate(191 220.785)"/><rect width="10" height="36" transform="translate(191 159.785)"/></g></g></svg>