<svg xmlns="http://www.w3.org/2000/svg" width="358" height="358" viewBox="0 0 358 358"><g transform="translate(-236 -920)"><circle cx="16" cy="16" r="16" transform="translate(463 945)" fill="#bfe8f7"/><circle cx="16" cy="16" r="16" transform="translate(398 945)" fill="#f9bfc8"/><circle cx="16" cy="16" r="16" transform="translate(528 945)" fill="#d7cfd2"/><path d="M594,920H236v358H594Zm-10,348H246V930H584Z"/><path d="M563,993H267v254H563Zm-10,244H277V1003H553Z"/><path d="M525,1191.867v-146.61l-94.156,81.2Z" fill="#ef637f"/><path d="M394.22,1126.455l-94.22-81.2v146.61Z" fill="#ef637f"/><path d="M412.51,1142.243l-15.318-13.188L300,1196.533H525l-97.172-67.477Z" fill="#ef637f"/><path d="M525,1040.276H300l112.51,96.995Z" fill="#ef637f"/></g></svg>