<svg xmlns="http://www.w3.org/2000/svg" width="348" height="348" viewBox="0 0 348 348"><g transform="translate(-589 -3974)"><g transform="translate(589 3974)"><g transform="translate(-826 -363)"><path d="M826,363V711h348V363Zm238,20a16,16,0,1,1-16,16A16,16,0,0,1,1064,383Zm-65,0a16,16,0,1,1-16,16A16,16,0,0,1,999,383Zm144,297H857V436h286Zm-14-265a16,16,0,1,1,16-16A16,16,0,0,1,1129,415Z" fill="#ef637f"/></g><path d="M949.893,605.986l6.715-7.41L915.7,561.5l40.912-37.076-6.715-7.41L900.8,561.5Z" transform="translate(-826 -363)" fill="#223a77"/><path d="M1050.607,517.014l-6.715,7.41L1084.8,561.5l-40.912,37.076,6.715,7.41L1099.7,561.5Z" transform="translate(-826 -363)" fill="#223a77"/><rect width="140.118" height="10" transform="matrix(0.335, -0.942, 0.942, 0.335, 146.04, 262.823)" fill="#223a77"/></g></g></svg>