<svg xmlns="http://www.w3.org/2000/svg" width="552" height="525" viewBox="0 0 552 525"><g transform="translate(-14 -1181)"><ellipse cx="259.5" cy="262.5" rx="259.5" ry="262.5" transform="translate(14 1181)" fill="#f7f7f7"/><g transform="translate(0 100)"><g transform="translate(214 1232)"><g transform="translate(-821 -1482)"><path d="M1173,1706v-38h-34.865a96.461,96.461,0,0,0-14.435-34.83l24.659-24.659-26.87-26.87L1096.83,1606.3a96.442,96.442,0,0,0-34.83-14.434V1557h-19v77a53,53,0,0,1,0,106v77h19v-34.865a96.461,96.461,0,0,0,34.83-14.435l24.659,24.659,26.87-26.87L1123.7,1740.83a96.461,96.461,0,0,0,14.435-34.83Z" fill="#223a77"/></g><g transform="translate(-821 -1482)"><rect width="88.636" height="10" transform="translate(920.364 1564)" fill="#bfe8f7"/></g><g transform="translate(-821 -1482)"><rect width="150" height="10" transform="translate(859 1600)" fill="#bfe8f7"/></g><g transform="translate(-821 -1482)"><rect width="40.5" height="10" transform="translate(968.5 1636)" fill="#bfe8f7"/></g><g transform="translate(-821 -1482)"><rect width="78.5" height="10" transform="translate(859 1636)" fill="#bfe8f7"/></g><g transform="translate(-821 -1482)"><rect width="40.5" height="10" transform="translate(859 1708)" fill="#bfe8f7"/></g><g transform="translate(-821 -1482)"><rect width="78.5" height="10" transform="translate(930.5 1708)" fill="#bfe8f7"/></g><g transform="translate(-821 -1482)"><rect width="150" height="10" transform="translate(859 1672)" fill="#bfe8f7"/></g><g transform="translate(-821 -1482)"><rect width="150" height="10" transform="translate(859 1744)" fill="#bfe8f7"/></g><g transform="translate(-821 -1482)"><rect width="50" height="10" transform="translate(859 1780)" fill="#bfe8f7"/></g><g transform="translate(-821 -1482)"><rect width="50" height="10" transform="translate(959 1780)" fill="#bfe8f7"/></g><path d="M821,1840h227V1482H821Zm10-10V1538h207v292Zm207-338v36H831v-36Z" transform="translate(-821 -1482)"/><rect width="19" height="10" transform="translate(179 22)"/><rect width="19" height="10" transform="translate(140 22)"/><rect width="19" height="10" transform="translate(101 22)"/></g></g></g></svg>