<svg xmlns="http://www.w3.org/2000/svg" width="519" height="525" viewBox="0 0 519 525"><g transform="translate(-57 -3235)"><ellipse cx="259.5" cy="262.5" rx="259.5" ry="262.5" transform="translate(57 3235)" fill="#f7f7f7"/><g transform="translate(5 171)"><g transform="translate(189 3213)"><g transform="translate(-1410 -925)"><path d="M1534,1273h0a31,31,0,0,1-31-31V973l31-40,31,40v269A31,31,0,0,1,1534,1273Z" fill="#bfe8f7"/></g><g transform="translate(-1410 -925)"><rect width="62" height="348" transform="translate(1604 925)" fill="#bfe8f7"/></g><path d="M1447,1067v-56a27.03,27.03,0,0,1,27-27V974a37.042,37.042,0,0,0-37,37v56a27.03,27.03,0,0,1-27,27v10a27.03,27.03,0,0,1,27,27v56a37.042,37.042,0,0,0,37,37v-10a27.03,27.03,0,0,1-27-27v-56a37.022,37.022,0,0,0-18.44-32A37.022,37.022,0,0,0,1447,1067Z" transform="translate(-1410 -925)" fill="#223a77"/><path d="M1721,1131v56a27.03,27.03,0,0,1-27,27v10a37.042,37.042,0,0,0,37-37v-56a27.03,27.03,0,0,1,27-27v-10a27.03,27.03,0,0,1-27-27v-56a37.042,37.042,0,0,0-37-37v10a27.03,27.03,0,0,1,27,27v56a37.022,37.022,0,0,0,18.44,32A37.022,37.022,0,0,0,1721,1131Z" transform="translate(-1410 -925)" fill="#223a77"/><rect width="62" height="10" transform="translate(93 44)"/><rect width="62" height="10" transform="translate(93 246)"/><rect width="62" height="10" transform="translate(93 276)"/><rect width="31" height="10" transform="translate(225 37)"/><rect width="24" height="10" transform="translate(232 73)"/><rect width="24" height="10" transform="translate(232 109)"/><rect width="31" height="10" transform="translate(225 145)"/><rect width="24" height="10" transform="translate(232 181)"/><rect width="24" height="10" transform="translate(232 217)"/><rect width="31" height="10" transform="translate(225 253)"/><rect width="24" height="10" transform="translate(232 289)"/></g></g></g></svg>